<?xml version="1.0" standalone="no"?>
<!DOCTYPE svg PUBLIC "-//W3C//DTD SVG 20010904//EN"
 "http://www.w3.org/TR/2001/REC-SVG-20010904/DTD/svg10.dtd">
<svg version="1.0" xmlns="http://www.w3.org/2000/svg"
 width="136.000000pt" height="136.000000pt" viewBox="0 0 136.000000 136.000000"
 preserveAspectRatio="xMidYMid meet">
<metadata>
Created by potrace 1.10, written by Peter Selinger 2001-2011
</metadata>
<g transform="translate(0.000000,136.000000) scale(0.100000,-0.100000)"
fill="#000000" stroke="none">
<path d="M580 1165 c0 -20 -5 -25 -25 -25 -20 0 -25 -5 -25 -25 l0 -25 -125 0
-125 0 0 -25 c0 -20 -5 -25 -25 -25 -20 0 -25 -5 -25 -25 0 -20 -5 -25 -25
-25 -20 0 -25 -5 -25 -25 0 -20 -5 -25 -25 -25 -20 0 -25 -5 -25 -25 0 -20 -5
-25 -25 -25 l-25 0 0 -147 c0 -111 3 -144 11 -136 7 7 14 59 16 125 4 126 15
158 50 158 16 0 23 6 23 19 0 25 56 81 81 81 13 0 19 7 19 21 0 38 28 48 126
49 63 0 96 4 110 15 28 21 300 21 328 0 14 -11 47 -15 110 -15 98 -1 126 -11
126 -49 0 -14 6 -21 19 -21 25 0 81 -56 81 -81 0 -13 7 -19 23 -19 35 0 45
-32 50 -158 2 -68 8 -117 15 -124 9 -9 12 22 12 135 l0 147 -25 0 c-20 0 -25
5 -25 25 0 20 -5 25 -25 25 -20 0 -25 5 -25 25 0 20 -5 25 -25 25 -20 0 -25 5
-25 25 0 20 -5 25 -25 25 -20 0 -25 5 -25 25 l0 25 -125 0 -125 0 0 25 c0 20
-5 25 -25 25 -20 0 -25 5 -25 25 0 25 0 25 -100 25 -100 0 -100 0 -100 -25z
m170 -22 c11 -10 20 -21 20 -25 0 -10 -164 -11 -174 -1 -4 4 3 15 16 25 31 23
111 24 138 1z"/>
<path d="M280 865 c0 -23 -3 -25 -50 -25 l-50 0 0 -325 0 -325 25 0 c20 0 25
-5 25 -25 0 -23 3 -25 50 -25 47 0 50 -2 50 -25 l0 -25 125 0 125 0 0 -25 c0
-25 0 -25 100 -25 100 0 100 0 100 25 l0 25 125 0 125 0 0 25 c0 23 3 25 50
25 47 0 50 2 50 25 0 20 5 25 25 25 l25 0 0 325 0 325 -50 0 c-47 0 -50 2 -50
25 0 25 0 25 -100 25 -100 0 -100 0 -100 -25 0 -23 -3 -25 -50 -25 -47 0 -50
-2 -50 -25 0 -25 0 -25 -100 -25 -100 0 -100 0 -100 25 0 23 -3 25 -50 25 -47
0 -50 2 -50 25 0 25 0 25 -100 25 -100 0 -100 0 -100 -25z m178 -30 c17 -14
39 -25 50 -25 11 0 34 -11 50 -25 27 -23 38 -25 124 -25 88 0 96 2 118 25 14
14 35 25 50 25 15 0 36 11 50 25 19 21 33 25 76 25 41 0 59 -5 82 -25 17 -14
39 -25 50 -25 11 0 24 -6 30 -12 5 -8 13 -131 17 -290 l7 -277 -36 -35 c-21
-22 -45 -36 -60 -36 -14 0 -37 -11 -52 -25 -25 -23 -34 -25 -126 -25 -92 0
-101 -2 -124 -25 -22 -22 -34 -25 -94 -25 -55 0 -70 3 -70 15 0 26 -36 35
-136 35 -90 0 -98 2 -120 25 -13 14 -34 25 -47 25 -13 0 -40 16 -61 35 l-38
35 7 277 c4 160 12 283 17 291 6 6 20 12 32 12 13 0 33 11 46 25 19 21 33 25
76 25 41 0 59 -5 82 -25z"/>
<path d="M265 705 c-25 -24 -25 -27 -25 -190 0 -163 0 -166 25 -190 16 -17 35
-25 59 -25 85 0 96 25 96 215 0 190 -11 215 -96 215 -24 0 -43 -8 -59 -25z
m115 -190 l0 -175 -50 0 -50 0 0 175 0 175 50 0 50 0 0 -175z"/>
<path d="M965 704 c-24 -26 -25 -31 -25 -191 0 -161 0 -164 25 -188 33 -33 94
-34 129 -2 24 22 24 26 25 188 l2 165 -27 27 c-37 37 -95 38 -129 1z m115
-189 l0 -175 -50 0 -50 0 0 175 0 175 50 0 50 0 0 -175z"/>
<path d="M628 318 c-30 -24 -37 -50 -22 -79 15 -30 32 -39 78 -39 69 0 102 65
54 110 -25 23 -85 27 -110 8z m102 -53 c0 -23 -3 -25 -50 -25 -47 0 -50 2 -50
25 0 23 3 25 50 25 47 0 50 -2 50 -25z"/>
<path d="M30 540 c0 -47 2 -50 25 -50 l25 0 0 -150 0 -150 25 0 c20 0 25 -5
25 -25 0 -20 5 -25 25 -25 20 0 25 -5 25 -25 0 -20 5 -25 25 -25 23 0 25 -4
25 -45 0 -41 2 -45 25 -45 18 0 25 5 25 20 0 11 -7 20 -16 20 -11 0 -14 6 -9
21 5 16 -8 36 -63 93 -39 40 -74 84 -77 99 -4 14 -5 71 -3 126 4 95 3 102 -19
121 -32 28 -30 58 5 66 66 14 66 23 0 23 l-68 1 0 -50z"/>
<path d="M1215 580 c11 -5 32 -11 48 -14 33 -8 35 -31 5 -63 -21 -22 -22 -32
-19 -143 l3 -119 -77 -80 c-61 -63 -75 -84 -70 -100 5 -15 2 -21 -9 -21 -9 0
-16 -9 -16 -20 0 -15 7 -20 25 -20 23 0 25 4 25 45 0 41 2 45 25 45 20 0 25 5
25 25 0 20 5 25 25 25 20 0 25 5 25 25 0 20 5 25 25 25 l25 0 0 150 0 150 25
0 c23 0 25 3 25 50 l0 50 -67 -1 c-48 0 -62 -3 -48 -9z"/>
<path d="M378 49 c-19 -11 -25 -49 -8 -49 6 0 10 9 10 20 0 15 7 20 25 20 18
0 25 -5 25 -20 0 -11 5 -20 10 -20 18 0 11 39 -9 50 -24 12 -31 12 -53 -1z"/>
<path d="M928 49 c-19 -11 -25 -49 -8 -49 6 0 10 9 10 20 0 15 7 20 25 20 18
0 25 -5 25 -20 0 -11 5 -20 10 -20 18 0 11 39 -9 50 -24 12 -31 12 -53 -1z"/>
</g>
</svg>
